<mxfile host="app.diagrams.net" modified="2022-11-02T02:34:40.208Z" agent="5.0 (Windows NT 10.0; Win64; x64) AppleWebKit/537.36 (KHTML, like Gecko) Chrome/106.0.0.0 Safari/537.36" etag="TfZ2ikUvXjFsCBD5HbA1" version="20.5.1" type="github">
  <diagram id="N2Mga1qD0SZ9ziPTeX7X" name="Page-1">
    <mxGraphModel dx="1038" dy="547" grid="1" gridSize="10" guides="1" tooltips="1" connect="1" arrows="1" fold="1" page="1" pageScale="1" pageWidth="850" pageHeight="1100" math="0" shadow="0">
      <root>
        <mxCell id="0" />
        <mxCell id="1" parent="0" />
        <mxCell id="X8a9fLmOPph_YtqE23iu-1" value="&lt;b&gt;&lt;font style=&quot;font-size: 15px&quot;&gt;kernel space&lt;/font&gt;&lt;/b&gt;" style="rounded=1;whiteSpace=wrap;html=1;shadow=1;align=left;fillColor=#eeeeee;strokeColor=none;" vertex="1" parent="1">
          <mxGeometry x="80" y="170" width="1020" height="150" as="geometry" />
        </mxCell>
        <mxCell id="X8a9fLmOPph_YtqE23iu-44" value="&lt;span&gt;&amp;nbsp; &amp;nbsp; &amp;nbsp; &amp;nbsp;&amp;nbsp;&lt;/span&gt;&lt;b&gt;&lt;font style=&quot;font-size: 18px&quot;&gt;APP Pod&lt;/font&gt;&lt;/b&gt;" style="rounded=1;whiteSpace=wrap;html=1;align=left;verticalAlign=top;strokeWidth=3;fillColor=#eeeeee;strokeColor=#36393d;" vertex="1" parent="1">
          <mxGeometry x="840" y="50" width="210" height="280" as="geometry" />
        </mxCell>
        <mxCell id="X8a9fLmOPph_YtqE23iu-42" value="&lt;font style=&quot;font-size: 18px&quot;&gt;&lt;b&gt;&amp;nbsp; &amp;nbsp; &amp;nbsp; &amp;nbsp; Ztunnel&amp;nbsp;&lt;font style=&quot;font-size: 18px&quot;&gt;Pod&lt;/font&gt;&lt;/b&gt;&lt;/font&gt;" style="rounded=1;whiteSpace=wrap;html=1;align=left;verticalAlign=top;fontSize=13;strokeWidth=3;fillColor=#eeeeee;strokeColor=#36393d;" vertex="1" parent="1">
          <mxGeometry x="330" y="50" width="190" height="280" as="geometry" />
        </mxCell>
        <mxCell id="X8a9fLmOPph_YtqE23iu-2" value="&lt;font style=&quot;font-size: 18px&quot;&gt;&lt;b&gt;&amp;nbsp; &amp;nbsp; APP&amp;nbsp;&lt;font style=&quot;font-size: 18px&quot;&gt;Pod&lt;/font&gt;&lt;/b&gt;&lt;/font&gt;" style="rounded=1;whiteSpace=wrap;html=1;align=left;verticalAlign=top;fontSize=13;strokeWidth=3;fillColor=#eeeeee;strokeColor=#36393d;" vertex="1" parent="1">
          <mxGeometry x="180" y="50" width="120" height="280" as="geometry" />
        </mxCell>
        <mxCell id="X8a9fLmOPph_YtqE23iu-3" value="" style="edgeStyle=orthogonalEdgeStyle;rounded=0;orthogonalLoop=1;jettySize=auto;html=1;entryX=0.207;entryY=0.118;entryDx=0;entryDy=0;entryPerimeter=0;strokeWidth=3;endArrow=none;endFill=0;" edge="1" parent="1" source="X8a9fLmOPph_YtqE23iu-4">
          <mxGeometry relative="1" as="geometry">
            <mxPoint x="243.29500000000007" y="302.36" as="targetPoint" />
          </mxGeometry>
        </mxCell>
        <mxCell id="X8a9fLmOPph_YtqE23iu-4" value="client" style="rounded=0;whiteSpace=wrap;html=1;fillColor=#e1d5e7;strokeColor=#9673a6;shadow=1;" vertex="1" parent="1">
          <mxGeometry x="205" y="110" width="80" height="50" as="geometry" />
        </mxCell>
        <mxCell id="X8a9fLmOPph_YtqE23iu-5" value="Socket" style="rounded=0;whiteSpace=wrap;html=1;fillColor=#60a917;strokeColor=#2D7600;fontColor=#ffffff;shadow=1;" vertex="1" parent="1">
          <mxGeometry x="205" y="180" width="80" height="20" as="geometry" />
        </mxCell>
        <mxCell id="X8a9fLmOPph_YtqE23iu-6" value="TCP/IP&lt;span style=&quot;color: rgba(0 , 0 , 0 , 0) ; font-family: monospace ; font-size: 0px&quot;&gt;%3CmxGraphModel%3E%3Croot%3E%3CmxCell%20id%3D%220%22%2F%3E%3CmxCell%20id%3D%221%22%20parent%3D%220%22%2F%3E%3CmxCell%20id%3D%222%22%20value%3D%22Socket%22%20style%3D%22rounded%3D0%3BwhiteSpace%3Dwrap%3Bhtml%3D1%3B%22%20vertex%3D%221%22%20parent%3D%221%22%3E%3CmxGeometry%20x%3D%22205%22%20y%3D%22180%22%20width%3D%2280%22%20height%3D%2220%22%20as%3D%22geometry%22%2F%3E%3C%2FmxCell%3E%3C%2Froot%3E%3C%2FmxGraphModel%3E&lt;/span&gt;" style="rounded=0;whiteSpace=wrap;html=1;fillColor=#fff2cc;strokeColor=#d6b656;shadow=1;" vertex="1" parent="1">
          <mxGeometry x="205" y="210" width="80" height="20" as="geometry" />
        </mxCell>
        <mxCell id="X8a9fLmOPph_YtqE23iu-8" style="edgeStyle=orthogonalEdgeStyle;rounded=0;orthogonalLoop=1;jettySize=auto;html=1;strokeColor=#000000;strokeWidth=3;startArrow=none;entryX=0;entryY=0.5;entryDx=0;entryDy=0;" edge="1" parent="1" source="X8a9fLmOPph_YtqE23iu-13" target="X8a9fLmOPph_YtqE23iu-15">
          <mxGeometry relative="1" as="geometry">
            <Array as="points">
              <mxPoint x="376" y="135" />
            </Array>
            <mxPoint x="376" y="300" as="sourcePoint" />
            <mxPoint x="390" y="132" as="targetPoint" />
          </mxGeometry>
        </mxCell>
        <mxCell id="X8a9fLmOPph_YtqE23iu-10" value="Ethernet" style="rounded=0;whiteSpace=wrap;html=1;fillColor=#0050ef;strokeColor=#001DBC;fontColor=#ffffff;shadow=1;" vertex="1" parent="1">
          <mxGeometry x="205" y="270" width="80" height="20" as="geometry" />
        </mxCell>
        <mxCell id="X8a9fLmOPph_YtqE23iu-11" value="Socket" style="rounded=0;whiteSpace=wrap;html=1;fillColor=#60a917;strokeColor=#2D7600;fontColor=#ffffff;shadow=1;" vertex="1" parent="1">
          <mxGeometry x="336" y="180" width="80" height="20" as="geometry" />
        </mxCell>
        <mxCell id="X8a9fLmOPph_YtqE23iu-12" value="TCP/IP&lt;span style=&quot;color: rgba(0 , 0 , 0 , 0) ; font-family: monospace ; font-size: 0px&quot;&gt;%3CmxGraphModel%3E%3Croot%3E%3CmxCell%20id%3D%220%22%2F%3E%3CmxCell%20id%3D%221%22%20parent%3D%220%22%2F%3E%3CmxCell%20id%3D%222%22%20value%3D%22Socket%22%20style%3D%22rounded%3D0%3BwhiteSpace%3Dwrap%3Bhtml%3D1%3B%22%20vertex%3D%221%22%20parent%3D%221%22%3E%3CmxGeometry%20x%3D%22205%22%20y%3D%22180%22%20width%3D%2280%22%20height%3D%2220%22%20as%3D%22geometry%22%2F%3E%3C%2FmxCell%3E%3C%2Froot%3E%3C%2FmxGraphModel%3E&lt;/span&gt;" style="rounded=0;whiteSpace=wrap;html=1;fillColor=#fff2cc;strokeColor=#d6b656;shadow=1;" vertex="1" parent="1">
          <mxGeometry x="336" y="210" width="80" height="20" as="geometry" />
        </mxCell>
        <mxCell id="X8a9fLmOPph_YtqE23iu-13" value="Ethernet" style="rounded=0;whiteSpace=wrap;html=1;fillColor=#0050ef;strokeColor=#001DBC;fontColor=#ffffff;shadow=1;" vertex="1" parent="1">
          <mxGeometry x="336" y="270" width="80" height="20" as="geometry" />
        </mxCell>
        <mxCell id="X8a9fLmOPph_YtqE23iu-14" style="edgeStyle=orthogonalEdgeStyle;rounded=0;orthogonalLoop=1;jettySize=auto;html=1;entryX=0.16;entryY=0.55;entryDx=0;entryDy=0;entryPerimeter=0;strokeColor=#000000;strokeWidth=3;endArrow=none;endFill=0;" edge="1" parent="1" source="X8a9fLmOPph_YtqE23iu-15" target="X8a9fLmOPph_YtqE23iu-29">
          <mxGeometry relative="1" as="geometry">
            <Array as="points">
              <mxPoint x="470" y="394" />
            </Array>
          </mxGeometry>
        </mxCell>
        <mxCell id="X8a9fLmOPph_YtqE23iu-15" value="envoy" style="rounded=0;whiteSpace=wrap;html=1;shadow=1;" vertex="1" parent="1">
          <mxGeometry x="410" y="110" width="80" height="50" as="geometry" />
        </mxCell>
        <mxCell id="X8a9fLmOPph_YtqE23iu-16" value="Socket" style="rounded=0;whiteSpace=wrap;html=1;fillColor=#60a917;strokeColor=#2D7600;fontColor=#ffffff;shadow=1;" vertex="1" parent="1">
          <mxGeometry x="430" y="180" width="80" height="20" as="geometry" />
        </mxCell>
        <mxCell id="X8a9fLmOPph_YtqE23iu-17" value="TCP/IP&lt;span style=&quot;color: rgba(0 , 0 , 0 , 0) ; font-family: monospace ; font-size: 0px&quot;&gt;%3CmxGraphModel%3E%3Croot%3E%3CmxCell%20id%3D%220%22%2F%3E%3CmxCell%20id%3D%221%22%20parent%3D%220%22%2F%3E%3CmxCell%20id%3D%222%22%20value%3D%22Socket%22%20style%3D%22rounded%3D0%3BwhiteSpace%3Dwrap%3Bhtml%3D1%3B%22%20vertex%3D%221%22%20parent%3D%221%22%3E%3CmxGeometry%20x%3D%22205%22%20y%3D%22180%22%20width%3D%2280%22%20height%3D%2220%22%20as%3D%22geometry%22%2F%3E%3C%2FmxCell%3E%3C%2Froot%3E%3C%2FmxGraphModel%3E&lt;/span&gt;" style="rounded=0;whiteSpace=wrap;html=1;fillColor=#fff2cc;strokeColor=#d6b656;shadow=1;" vertex="1" parent="1">
          <mxGeometry x="430" y="210" width="80" height="20" as="geometry" />
        </mxCell>
        <mxCell id="X8a9fLmOPph_YtqE23iu-18" value="Ethernet" style="rounded=0;whiteSpace=wrap;html=1;fillColor=#0050ef;strokeColor=#001DBC;fontColor=#ffffff;shadow=1;" vertex="1" parent="1">
          <mxGeometry x="430" y="270" width="80" height="20" as="geometry" />
        </mxCell>
        <mxCell id="X8a9fLmOPph_YtqE23iu-20" value="&lt;span&gt;&amp;nbsp; &amp;nbsp; &amp;nbsp; &amp;nbsp;&amp;nbsp;&lt;/span&gt;&lt;b&gt;&lt;font style=&quot;font-size: 18px&quot;&gt;Ztunnel Pod&lt;/font&gt;&lt;/b&gt;" style="rounded=1;whiteSpace=wrap;html=1;align=left;verticalAlign=top;strokeWidth=3;fillColor=#eeeeee;strokeColor=#36393d;" vertex="1" parent="1">
          <mxGeometry x="620" y="50" width="210" height="280" as="geometry" />
        </mxCell>
        <mxCell id="X8a9fLmOPph_YtqE23iu-21" value="server" style="rounded=0;whiteSpace=wrap;html=1;fillColor=#e1d5e7;strokeColor=#9673a6;shadow=1;" vertex="1" parent="1">
          <mxGeometry x="875" y="110" width="80" height="50" as="geometry" />
        </mxCell>
        <mxCell id="X8a9fLmOPph_YtqE23iu-22" style="edgeStyle=orthogonalEdgeStyle;rounded=0;orthogonalLoop=1;jettySize=auto;html=1;entryX=0.5;entryY=1;entryDx=0;entryDy=0;strokeColor=#000000;strokeWidth=3;" edge="1" parent="1" target="X8a9fLmOPph_YtqE23iu-21">
          <mxGeometry relative="1" as="geometry">
            <Array as="points">
              <mxPoint x="915" y="260" />
              <mxPoint x="915" y="260" />
            </Array>
            <mxPoint x="915" y="300" as="sourcePoint" />
          </mxGeometry>
        </mxCell>
        <mxCell id="X8a9fLmOPph_YtqE23iu-24" value="Socket" style="rounded=0;whiteSpace=wrap;html=1;fillColor=#60a917;strokeColor=#2D7600;fontColor=#ffffff;shadow=1;" vertex="1" parent="1">
          <mxGeometry x="875" y="180" width="80" height="20" as="geometry" />
        </mxCell>
        <mxCell id="X8a9fLmOPph_YtqE23iu-25" value="TCP/IP&lt;span style=&quot;color: rgba(0 , 0 , 0 , 0) ; font-family: monospace ; font-size: 0px&quot;&gt;%3CmxGraphModel%3E%3Croot%3E%3CmxCell%20id%3D%220%22%2F%3E%3CmxCell%20id%3D%221%22%20parent%3D%220%22%2F%3E%3CmxCell%20id%3D%222%22%20value%3D%22Socket%22%20style%3D%22rounded%3D0%3BwhiteSpace%3Dwrap%3Bhtml%3D1%3B%22%20vertex%3D%221%22%20parent%3D%221%22%3E%3CmxGeometry%20x%3D%22205%22%20y%3D%22180%22%20width%3D%2280%22%20height%3D%2220%22%20as%3D%22geometry%22%2F%3E%3C%2FmxCell%3E%3C%2Froot%3E%3C%2FmxGraphModel%3E&lt;/span&gt;" style="rounded=0;whiteSpace=wrap;html=1;fillColor=#fff2cc;strokeColor=#d6b656;shadow=1;" vertex="1" parent="1">
          <mxGeometry x="875" y="210" width="80" height="20" as="geometry" />
        </mxCell>
        <mxCell id="X8a9fLmOPph_YtqE23iu-26" value="Ethernet" style="rounded=0;whiteSpace=wrap;html=1;fillColor=#0050ef;strokeColor=#001DBC;fontColor=#ffffff;shadow=1;" vertex="1" parent="1">
          <mxGeometry x="875" y="270" width="80" height="20" as="geometry" />
        </mxCell>
        <mxCell id="X8a9fLmOPph_YtqE23iu-27" style="edgeStyle=orthogonalEdgeStyle;rounded=0;orthogonalLoop=1;jettySize=auto;html=1;entryX=0.212;entryY=0.099;entryDx=0;entryDy=0;entryPerimeter=0;strokeColor=#000000;strokeWidth=3;endArrow=none;endFill=0;" edge="1" parent="1" source="X8a9fLmOPph_YtqE23iu-28">
          <mxGeometry relative="1" as="geometry">
            <mxPoint x="779.22" y="301.98" as="targetPoint" />
          </mxGeometry>
        </mxCell>
        <mxCell id="X8a9fLmOPph_YtqE23iu-28" value="envoy" style="rounded=0;whiteSpace=wrap;html=1;shadow=1;" vertex="1" parent="1">
          <mxGeometry x="740" y="110" width="80" height="50" as="geometry" />
        </mxCell>
        <mxCell id="X8a9fLmOPph_YtqE23iu-29" value="Network" style="ellipse;shape=cloud;whiteSpace=wrap;html=1;fillColor=#f5f5f5;strokeColor=#666666;fontColor=#333333;" vertex="1" parent="1">
          <mxGeometry x="520" y="350" width="120" height="80" as="geometry" />
        </mxCell>
        <mxCell id="X8a9fLmOPph_YtqE23iu-30" style="edgeStyle=orthogonalEdgeStyle;rounded=0;orthogonalLoop=1;jettySize=auto;html=1;entryX=0;entryY=0.5;entryDx=0;entryDy=0;strokeColor=#000000;exitX=0.875;exitY=0.5;exitDx=0;exitDy=0;exitPerimeter=0;strokeWidth=3;" edge="1" parent="1" source="X8a9fLmOPph_YtqE23iu-29" target="X8a9fLmOPph_YtqE23iu-28">
          <mxGeometry relative="1" as="geometry">
            <Array as="points">
              <mxPoint x="690" y="390" />
              <mxPoint x="690" y="135" />
            </Array>
          </mxGeometry>
        </mxCell>
        <mxCell id="X8a9fLmOPph_YtqE23iu-31" value="Socket" style="rounded=0;whiteSpace=wrap;html=1;fillColor=#60a917;strokeColor=#2D7600;fontColor=#ffffff;shadow=1;" vertex="1" parent="1">
          <mxGeometry x="650" y="180" width="80" height="20" as="geometry" />
        </mxCell>
        <mxCell id="X8a9fLmOPph_YtqE23iu-32" value="TCP/IP&lt;span style=&quot;color: rgba(0 , 0 , 0 , 0) ; font-family: monospace ; font-size: 0px&quot;&gt;%3CmxGraphModel%3E%3Croot%3E%3CmxCell%20id%3D%220%22%2F%3E%3CmxCell%20id%3D%221%22%20parent%3D%220%22%2F%3E%3CmxCell%20id%3D%222%22%20value%3D%22Socket%22%20style%3D%22rounded%3D0%3BwhiteSpace%3Dwrap%3Bhtml%3D1%3B%22%20vertex%3D%221%22%20parent%3D%221%22%3E%3CmxGeometry%20x%3D%22205%22%20y%3D%22180%22%20width%3D%2280%22%20height%3D%2220%22%20as%3D%22geometry%22%2F%3E%3C%2FmxCell%3E%3C%2Froot%3E%3C%2FmxGraphModel%3E&lt;/span&gt;" style="rounded=0;whiteSpace=wrap;html=1;fillColor=#fff2cc;strokeColor=#d6b656;shadow=1;" vertex="1" parent="1">
          <mxGeometry x="650" y="210" width="80" height="20" as="geometry" />
        </mxCell>
        <mxCell id="X8a9fLmOPph_YtqE23iu-33" value="iptables" style="rounded=0;whiteSpace=wrap;html=1;fillColor=#f8cecc;strokeColor=#b85450;shadow=1;" vertex="1" parent="1">
          <mxGeometry x="650" y="240" width="80" height="20" as="geometry" />
        </mxCell>
        <mxCell id="X8a9fLmOPph_YtqE23iu-34" value="Ethernet" style="rounded=0;whiteSpace=wrap;html=1;fillColor=#0050ef;strokeColor=#001DBC;fontColor=#ffffff;shadow=1;" vertex="1" parent="1">
          <mxGeometry x="650" y="270" width="80" height="20" as="geometry" />
        </mxCell>
        <mxCell id="X8a9fLmOPph_YtqE23iu-46" style="edgeStyle=orthogonalEdgeStyle;rounded=0;orthogonalLoop=1;jettySize=auto;html=1;exitX=0.75;exitY=1;exitDx=0;exitDy=0;entryX=0.5;entryY=1;entryDx=0;entryDy=0;strokeWidth=3;endArrow=none;endFill=0;" edge="1" parent="1" source="X8a9fLmOPph_YtqE23iu-35" target="X8a9fLmOPph_YtqE23iu-45">
          <mxGeometry relative="1" as="geometry" />
        </mxCell>
        <mxCell id="X8a9fLmOPph_YtqE23iu-35" value="eth0" style="rounded=0;whiteSpace=wrap;html=1;fillColor=#f5f5f5;strokeColor=#666666;fontColor=#333333;shadow=1;" vertex="1" parent="1">
          <mxGeometry x="650" y="300" width="170" height="20" as="geometry" />
        </mxCell>
        <mxCell id="X8a9fLmOPph_YtqE23iu-36" value="Socket" style="rounded=0;whiteSpace=wrap;html=1;fillColor=#60a917;strokeColor=#2D7600;fontColor=#ffffff;shadow=1;" vertex="1" parent="1">
          <mxGeometry x="740" y="180" width="80" height="20" as="geometry" />
        </mxCell>
        <mxCell id="X8a9fLmOPph_YtqE23iu-37" value="TCP/IP&lt;span style=&quot;color: rgba(0 , 0 , 0 , 0) ; font-family: monospace ; font-size: 0px&quot;&gt;%3CmxGraphModel%3E%3Croot%3E%3CmxCell%20id%3D%220%22%2F%3E%3CmxCell%20id%3D%221%22%20parent%3D%220%22%2F%3E%3CmxCell%20id%3D%222%22%20value%3D%22Socket%22%20style%3D%22rounded%3D0%3BwhiteSpace%3Dwrap%3Bhtml%3D1%3B%22%20vertex%3D%221%22%20parent%3D%221%22%3E%3CmxGeometry%20x%3D%22205%22%20y%3D%22180%22%20width%3D%2280%22%20height%3D%2220%22%20as%3D%22geometry%22%2F%3E%3C%2FmxCell%3E%3C%2Froot%3E%3C%2FmxGraphModel%3E&lt;/span&gt;" style="rounded=0;whiteSpace=wrap;html=1;fillColor=#fff2cc;strokeColor=#d6b656;shadow=1;" vertex="1" parent="1">
          <mxGeometry x="740" y="210" width="80" height="20" as="geometry" />
        </mxCell>
        <mxCell id="X8a9fLmOPph_YtqE23iu-38" value="Ethernet" style="rounded=0;whiteSpace=wrap;html=1;fillColor=#0050ef;strokeColor=#001DBC;fontColor=#ffffff;shadow=1;" vertex="1" parent="1">
          <mxGeometry x="740" y="270" width="80" height="20" as="geometry" />
        </mxCell>
        <mxCell id="X8a9fLmOPph_YtqE23iu-43" style="edgeStyle=orthogonalEdgeStyle;rounded=0;orthogonalLoop=1;jettySize=auto;html=1;exitX=0.5;exitY=1;exitDx=0;exitDy=0;entryX=0.5;entryY=1;entryDx=0;entryDy=0;endArrow=none;endFill=0;strokeWidth=3;" edge="1" parent="1" source="X8a9fLmOPph_YtqE23iu-39" target="X8a9fLmOPph_YtqE23iu-13">
          <mxGeometry relative="1" as="geometry" />
        </mxCell>
        <mxCell id="X8a9fLmOPph_YtqE23iu-39" value="eth0" style="rounded=0;whiteSpace=wrap;html=1;fillColor=#f5f5f5;strokeColor=#666666;fontColor=#333333;shadow=1;" vertex="1" parent="1">
          <mxGeometry x="205" y="300" width="80" height="20" as="geometry" />
        </mxCell>
        <mxCell id="X8a9fLmOPph_YtqE23iu-40" value="iptables" style="rounded=0;whiteSpace=wrap;html=1;fillColor=#f8cecc;strokeColor=#b85450;shadow=1;" vertex="1" parent="1">
          <mxGeometry x="336" y="240" width="80" height="20" as="geometry" />
        </mxCell>
        <mxCell id="X8a9fLmOPph_YtqE23iu-19" value="eth0" style="rounded=0;whiteSpace=wrap;html=1;fillColor=#f5f5f5;strokeColor=#666666;fontColor=#333333;shadow=1;" vertex="1" parent="1">
          <mxGeometry x="340" y="300" width="170" height="20" as="geometry" />
        </mxCell>
        <mxCell id="X8a9fLmOPph_YtqE23iu-45" value="eth0" style="rounded=0;whiteSpace=wrap;html=1;fillColor=#f5f5f5;strokeColor=#666666;fontColor=#333333;shadow=1;" vertex="1" parent="1">
          <mxGeometry x="875" y="300" width="80" height="20" as="geometry" />
        </mxCell>
        <mxCell id="X8a9fLmOPph_YtqE23iu-47" value="&lt;b&gt;&lt;font style=&quot;font-size: 15px&quot;&gt;kernel space&lt;/font&gt;&lt;/b&gt;" style="rounded=1;whiteSpace=wrap;html=1;shadow=1;align=left;fillColor=#eeeeee;strokeColor=none;" vertex="1" parent="1">
          <mxGeometry x="90" y="566" width="1020" height="150" as="geometry" />
        </mxCell>
        <mxCell id="X8a9fLmOPph_YtqE23iu-48" value="&lt;span&gt;&amp;nbsp; &amp;nbsp; &amp;nbsp; &amp;nbsp;&amp;nbsp;&lt;/span&gt;&lt;b&gt;&lt;font style=&quot;font-size: 18px&quot;&gt;APP Pod&lt;/font&gt;&lt;/b&gt;" style="rounded=1;whiteSpace=wrap;html=1;align=left;verticalAlign=top;strokeWidth=3;fillColor=#eeeeee;strokeColor=#36393d;" vertex="1" parent="1">
          <mxGeometry x="850" y="446" width="210" height="280" as="geometry" />
        </mxCell>
        <mxCell id="X8a9fLmOPph_YtqE23iu-49" value="&lt;font style=&quot;font-size: 18px&quot;&gt;&lt;b&gt;&amp;nbsp; &amp;nbsp; &amp;nbsp; &amp;nbsp; Ztunnel&amp;nbsp;&lt;font style=&quot;font-size: 18px&quot;&gt;Pod&lt;/font&gt;&lt;/b&gt;&lt;/font&gt;" style="rounded=1;whiteSpace=wrap;html=1;align=left;verticalAlign=top;fontSize=13;strokeWidth=3;fillColor=#eeeeee;strokeColor=#36393d;" vertex="1" parent="1">
          <mxGeometry x="340" y="446" width="190" height="280" as="geometry" />
        </mxCell>
        <mxCell id="X8a9fLmOPph_YtqE23iu-50" value="&lt;font style=&quot;font-size: 18px&quot;&gt;&lt;b&gt;&amp;nbsp; &amp;nbsp; APP&amp;nbsp;&lt;font style=&quot;font-size: 18px&quot;&gt;Pod&lt;/font&gt;&lt;/b&gt;&lt;/font&gt;" style="rounded=1;whiteSpace=wrap;html=1;align=left;verticalAlign=top;fontSize=13;strokeWidth=3;fillColor=#eeeeee;strokeColor=#36393d;" vertex="1" parent="1">
          <mxGeometry x="190" y="446" width="120" height="280" as="geometry" />
        </mxCell>
        <mxCell id="X8a9fLmOPph_YtqE23iu-51" value="" style="edgeStyle=orthogonalEdgeStyle;rounded=0;orthogonalLoop=1;jettySize=auto;html=1;strokeWidth=3;endArrow=none;endFill=0;" edge="1" parent="1" source="X8a9fLmOPph_YtqE23iu-52">
          <mxGeometry relative="1" as="geometry">
            <mxPoint x="253" y="620" as="targetPoint" />
          </mxGeometry>
        </mxCell>
        <mxCell id="X8a9fLmOPph_YtqE23iu-52" value="client" style="rounded=0;whiteSpace=wrap;html=1;fillColor=#e1d5e7;strokeColor=#9673a6;shadow=1;" vertex="1" parent="1">
          <mxGeometry x="215" y="506" width="80" height="50" as="geometry" />
        </mxCell>
        <mxCell id="X8a9fLmOPph_YtqE23iu-53" value="Socket" style="rounded=0;whiteSpace=wrap;html=1;fillColor=#60a917;strokeColor=#2D7600;fontColor=#ffffff;shadow=1;" vertex="1" parent="1">
          <mxGeometry x="215" y="576" width="80" height="20" as="geometry" />
        </mxCell>
        <mxCell id="X8a9fLmOPph_YtqE23iu-55" style="edgeStyle=orthogonalEdgeStyle;rounded=0;orthogonalLoop=1;jettySize=auto;html=1;strokeColor=#000000;strokeWidth=3;startArrow=none;entryX=0;entryY=0.5;entryDx=0;entryDy=0;" edge="1" parent="1" target="X8a9fLmOPph_YtqE23iu-61">
          <mxGeometry relative="1" as="geometry">
            <Array as="points">
              <mxPoint x="386" y="531" />
            </Array>
            <mxPoint x="386" y="620" as="sourcePoint" />
            <mxPoint x="400" y="528" as="targetPoint" />
          </mxGeometry>
        </mxCell>
        <mxCell id="X8a9fLmOPph_YtqE23iu-57" value="Socket" style="rounded=0;whiteSpace=wrap;html=1;fillColor=#60a917;strokeColor=#2D7600;fontColor=#ffffff;shadow=1;" vertex="1" parent="1">
          <mxGeometry x="346" y="576" width="80" height="20" as="geometry" />
        </mxCell>
        <mxCell id="X8a9fLmOPph_YtqE23iu-60" style="edgeStyle=orthogonalEdgeStyle;rounded=0;orthogonalLoop=1;jettySize=auto;html=1;entryX=0.16;entryY=0.55;entryDx=0;entryDy=0;entryPerimeter=0;strokeColor=#000000;strokeWidth=3;endArrow=none;endFill=0;" edge="1" parent="1" source="X8a9fLmOPph_YtqE23iu-61" target="X8a9fLmOPph_YtqE23iu-73">
          <mxGeometry relative="1" as="geometry">
            <Array as="points">
              <mxPoint x="480" y="790" />
            </Array>
          </mxGeometry>
        </mxCell>
        <mxCell id="X8a9fLmOPph_YtqE23iu-61" value="envoy" style="rounded=0;whiteSpace=wrap;html=1;shadow=1;" vertex="1" parent="1">
          <mxGeometry x="420" y="506" width="80" height="50" as="geometry" />
        </mxCell>
        <mxCell id="X8a9fLmOPph_YtqE23iu-62" value="Socket" style="rounded=0;whiteSpace=wrap;html=1;fillColor=#60a917;strokeColor=#2D7600;fontColor=#ffffff;shadow=1;" vertex="1" parent="1">
          <mxGeometry x="440" y="576" width="80" height="20" as="geometry" />
        </mxCell>
        <mxCell id="X8a9fLmOPph_YtqE23iu-63" value="TCP/IP&lt;span style=&quot;color: rgba(0 , 0 , 0 , 0) ; font-family: monospace ; font-size: 0px&quot;&gt;%3CmxGraphModel%3E%3Croot%3E%3CmxCell%20id%3D%220%22%2F%3E%3CmxCell%20id%3D%221%22%20parent%3D%220%22%2F%3E%3CmxCell%20id%3D%222%22%20value%3D%22Socket%22%20style%3D%22rounded%3D0%3BwhiteSpace%3Dwrap%3Bhtml%3D1%3B%22%20vertex%3D%221%22%20parent%3D%221%22%3E%3CmxGeometry%20x%3D%22205%22%20y%3D%22180%22%20width%3D%2280%22%20height%3D%2220%22%20as%3D%22geometry%22%2F%3E%3C%2FmxCell%3E%3C%2Froot%3E%3C%2FmxGraphModel%3E&lt;/span&gt;" style="rounded=0;whiteSpace=wrap;html=1;fillColor=#fff2cc;strokeColor=#d6b656;shadow=1;" vertex="1" parent="1">
          <mxGeometry x="440" y="606" width="80" height="20" as="geometry" />
        </mxCell>
        <mxCell id="X8a9fLmOPph_YtqE23iu-64" value="Ethernet" style="rounded=0;whiteSpace=wrap;html=1;fillColor=#0050ef;strokeColor=#001DBC;fontColor=#ffffff;shadow=1;" vertex="1" parent="1">
          <mxGeometry x="440" y="666" width="80" height="20" as="geometry" />
        </mxCell>
        <mxCell id="X8a9fLmOPph_YtqE23iu-65" value="&lt;span&gt;&amp;nbsp; &amp;nbsp; &amp;nbsp; &amp;nbsp;&amp;nbsp;&lt;/span&gt;&lt;b&gt;&lt;font style=&quot;font-size: 18px&quot;&gt;Ztunnel Pod&lt;/font&gt;&lt;/b&gt;" style="rounded=1;whiteSpace=wrap;html=1;align=left;verticalAlign=top;strokeWidth=3;fillColor=#eeeeee;strokeColor=#36393d;" vertex="1" parent="1">
          <mxGeometry x="630" y="446" width="210" height="280" as="geometry" />
        </mxCell>
        <mxCell id="X8a9fLmOPph_YtqE23iu-66" value="server" style="rounded=0;whiteSpace=wrap;html=1;fillColor=#e1d5e7;strokeColor=#9673a6;shadow=1;" vertex="1" parent="1">
          <mxGeometry x="885" y="506" width="80" height="50" as="geometry" />
        </mxCell>
        <mxCell id="X8a9fLmOPph_YtqE23iu-67" style="edgeStyle=orthogonalEdgeStyle;rounded=0;orthogonalLoop=1;jettySize=auto;html=1;entryX=0.5;entryY=1;entryDx=0;entryDy=0;strokeColor=#000000;strokeWidth=3;" edge="1" parent="1" target="X8a9fLmOPph_YtqE23iu-66">
          <mxGeometry relative="1" as="geometry">
            <Array as="points">
              <mxPoint x="925" y="610" />
              <mxPoint x="925" y="610" />
            </Array>
            <mxPoint x="925" y="610" as="sourcePoint" />
          </mxGeometry>
        </mxCell>
        <mxCell id="X8a9fLmOPph_YtqE23iu-68" value="Socket" style="rounded=0;whiteSpace=wrap;html=1;fillColor=#60a917;strokeColor=#2D7600;fontColor=#ffffff;shadow=1;" vertex="1" parent="1">
          <mxGeometry x="885" y="576" width="80" height="20" as="geometry" />
        </mxCell>
        <mxCell id="X8a9fLmOPph_YtqE23iu-71" style="edgeStyle=orthogonalEdgeStyle;rounded=0;orthogonalLoop=1;jettySize=auto;html=1;strokeColor=#000000;strokeWidth=3;endArrow=none;endFill=0;" edge="1" parent="1" source="X8a9fLmOPph_YtqE23iu-72">
          <mxGeometry relative="1" as="geometry">
            <mxPoint x="790" y="610" as="targetPoint" />
          </mxGeometry>
        </mxCell>
        <mxCell id="X8a9fLmOPph_YtqE23iu-72" value="envoy" style="rounded=0;whiteSpace=wrap;html=1;shadow=1;" vertex="1" parent="1">
          <mxGeometry x="750" y="506" width="80" height="50" as="geometry" />
        </mxCell>
        <mxCell id="X8a9fLmOPph_YtqE23iu-73" value="Network" style="ellipse;shape=cloud;whiteSpace=wrap;html=1;fillColor=#f5f5f5;strokeColor=#666666;fontColor=#333333;" vertex="1" parent="1">
          <mxGeometry x="530" y="746" width="120" height="80" as="geometry" />
        </mxCell>
        <mxCell id="X8a9fLmOPph_YtqE23iu-74" style="edgeStyle=orthogonalEdgeStyle;rounded=0;orthogonalLoop=1;jettySize=auto;html=1;entryX=0;entryY=0.5;entryDx=0;entryDy=0;strokeColor=#000000;exitX=0.875;exitY=0.5;exitDx=0;exitDy=0;exitPerimeter=0;strokeWidth=3;" edge="1" parent="1" source="X8a9fLmOPph_YtqE23iu-73" target="X8a9fLmOPph_YtqE23iu-72">
          <mxGeometry relative="1" as="geometry">
            <Array as="points">
              <mxPoint x="700" y="786" />
              <mxPoint x="700" y="531" />
            </Array>
          </mxGeometry>
        </mxCell>
        <mxCell id="X8a9fLmOPph_YtqE23iu-75" value="Socket" style="rounded=0;whiteSpace=wrap;html=1;fillColor=#60a917;strokeColor=#2D7600;fontColor=#ffffff;shadow=1;" vertex="1" parent="1">
          <mxGeometry x="660" y="576" width="80" height="20" as="geometry" />
        </mxCell>
        <mxCell id="X8a9fLmOPph_YtqE23iu-76" value="TCP/IP&lt;span style=&quot;color: rgba(0 , 0 , 0 , 0) ; font-family: monospace ; font-size: 0px&quot;&gt;%3CmxGraphModel%3E%3Croot%3E%3CmxCell%20id%3D%220%22%2F%3E%3CmxCell%20id%3D%221%22%20parent%3D%220%22%2F%3E%3CmxCell%20id%3D%222%22%20value%3D%22Socket%22%20style%3D%22rounded%3D0%3BwhiteSpace%3Dwrap%3Bhtml%3D1%3B%22%20vertex%3D%221%22%20parent%3D%221%22%3E%3CmxGeometry%20x%3D%22205%22%20y%3D%22180%22%20width%3D%2280%22%20height%3D%2220%22%20as%3D%22geometry%22%2F%3E%3C%2FmxCell%3E%3C%2Froot%3E%3C%2FmxGraphModel%3E&lt;/span&gt;" style="rounded=0;whiteSpace=wrap;html=1;fillColor=#fff2cc;strokeColor=#d6b656;shadow=1;" vertex="1" parent="1">
          <mxGeometry x="660" y="606" width="80" height="20" as="geometry" />
        </mxCell>
        <mxCell id="X8a9fLmOPph_YtqE23iu-77" value="iptables" style="rounded=0;whiteSpace=wrap;html=1;fillColor=#f8cecc;strokeColor=#b85450;shadow=1;" vertex="1" parent="1">
          <mxGeometry x="660" y="636" width="80" height="20" as="geometry" />
        </mxCell>
        <mxCell id="X8a9fLmOPph_YtqE23iu-78" value="Ethernet" style="rounded=0;whiteSpace=wrap;html=1;fillColor=#0050ef;strokeColor=#001DBC;fontColor=#ffffff;shadow=1;" vertex="1" parent="1">
          <mxGeometry x="660" y="666" width="80" height="20" as="geometry" />
        </mxCell>
        <mxCell id="X8a9fLmOPph_YtqE23iu-80" value="eth0" style="rounded=0;whiteSpace=wrap;html=1;fillColor=#f5f5f5;strokeColor=#666666;fontColor=#333333;shadow=1;" vertex="1" parent="1">
          <mxGeometry x="660" y="696" width="80" height="20" as="geometry" />
        </mxCell>
        <mxCell id="X8a9fLmOPph_YtqE23iu-81" value="Socket" style="rounded=0;whiteSpace=wrap;html=1;fillColor=#60a917;strokeColor=#2D7600;fontColor=#ffffff;shadow=1;" vertex="1" parent="1">
          <mxGeometry x="750" y="576" width="80" height="20" as="geometry" />
        </mxCell>
        <mxCell id="X8a9fLmOPph_YtqE23iu-87" value="eth0" style="rounded=0;whiteSpace=wrap;html=1;fillColor=#f5f5f5;strokeColor=#666666;fontColor=#333333;shadow=1;" vertex="1" parent="1">
          <mxGeometry x="440" y="696" width="80" height="20" as="geometry" />
        </mxCell>
        <mxCell id="X8a9fLmOPph_YtqE23iu-90" value="ebpf" style="rounded=0;whiteSpace=wrap;html=1;fillColor=#f0a30a;strokeColor=#BD7000;shadow=1;fontColor=#000000;" vertex="1" parent="1">
          <mxGeometry x="215" y="606" width="205" height="20" as="geometry" />
        </mxCell>
        <mxCell id="X8a9fLmOPph_YtqE23iu-91" value="ebpf" style="rounded=0;whiteSpace=wrap;html=1;fillColor=#f0a30a;strokeColor=#BD7000;shadow=1;fontColor=#000000;" vertex="1" parent="1">
          <mxGeometry x="760" y="606" width="205" height="20" as="geometry" />
        </mxCell>
      </root>
    </mxGraphModel>
  </diagram>
</mxfile>
